<?xml version="1.0" encoding="UTF-8" standalone="no"?>
<!DOCTYPE svg PUBLIC "-//W3C//DTD SVG 1.1//EN"
 "http://www.w3.org/Graphics/SVG/1.1/DTD/svg11.dtd">
<!-- Generated by graphviz version 8.1.0 (20230707.0739)
 -->
<!-- Title: request_state_machine Pages: 1 -->
<svg width="625pt" height="146pt"
 viewBox="0.00 0.00 625.43 145.89" xmlns="http://www.w3.org/2000/svg" xmlns:xlink="http://www.w3.org/1999/xlink">
<g id="graph0" class="graph" transform="scale(1 1) rotate(0) translate(4 141.89)">
<title>request_state_machine</title>
<polygon fill="white" stroke="none" points="-4,4 -4,-141.89 621.43,-141.89 621.43,4 -4,4"/>
<!-- null -->
<g id="node1" class="node">
<title>null</title>
<ellipse fill="black" stroke="black" cx="1.8" cy="-53.89" rx="1.8" ry="1.8"/>
</g>
<!-- PENDING -->
<g id="node2" class="node">
<title>PENDING</title>
<ellipse fill="none" stroke="black" cx="202.96" cy="-53.89" rx="50.86" ry="18"/>
<text text-anchor="middle" x="202.96" y="-48.09" font-family="Helvetica,Arial,sans-serif" font-size="14.00">PENDING</text>
</g>
<!-- null&#45;&gt;PENDING -->
<g id="edge1" class="edge">
<title>null&#45;&gt;PENDING</title>
<path fill="none" stroke="black" d="M4.07,-53.89C14.49,-53.89 86.7,-53.89 140.91,-53.89"/>
<polygon fill="black" stroke="black" points="140.83,-57.39 150.83,-53.89 140.83,-50.39 140.83,-57.39"/>
<text text-anchor="middle" x="77.85" y="-55.59" font-family="Helvetica,Arial,sans-serif" font-size="14.00">MAKE_REQUEST</text>
</g>
<!-- PENDING&#45;&gt;PENDING -->
<g id="edge3" class="edge">
<title>PENDING&#45;&gt;PENDING</title>
<path fill="none" stroke="black" d="M191.71,-71.68C189.8,-81.21 193.55,-89.89 202.96,-89.89 208.54,-89.89 212.13,-86.83 213.73,-82.35"/>
<polygon fill="black" stroke="black" points="217.26,-82.82 214.2,-72.68 210.26,-82.51 217.26,-82.82"/>
<text text-anchor="middle" x="202.96" y="-91.59" font-family="Helvetica,Arial,sans-serif" font-size="14.00">TIMEOUT [retries &lt; max]</text>
</g>
<!-- PENDING&#45;&gt;PENDING -->
<g id="edge6" class="edge">
<title>PENDING&#45;&gt;PENDING</title>
<path fill="none" stroke="black" d="M184.65,-71.04C173.89,-88.48 179.99,-107.89 202.96,-107.89 221.62,-107.89 229.15,-95.08 225.54,-80.91"/>
<polygon fill="black" stroke="black" points="228.45,-79.82 221.26,-72.04 222.02,-82.6 228.45,-79.82"/>
<text text-anchor="middle" x="202.96" y="-109.59" font-family="Helvetica,Arial,sans-serif" font-size="14.00">REQUEST_ERROR [retries &lt; max]</text>
</g>
<!-- SUCCESS -->
<g id="node3" class="node">
<title>SUCCESS</title>
<ellipse fill="none" stroke="black" cx="564.62" cy="-91.89" rx="52.81" ry="18"/>
<text text-anchor="middle" x="564.62" y="-86.09" font-family="Helvetica,Arial,sans-serif" font-size="14.00">SUCCESS</text>
</g>
<!-- PENDING&#45;&gt;SUCCESS -->
<g id="edge2" class="edge">
<title>PENDING&#45;&gt;SUCCESS</title>
<path fill="none" stroke="black" d="M247.65,-62.96C255.66,-64.42 263.97,-65.81 271.82,-66.89 350.65,-77.79 442.16,-84.71 501.38,-88.44"/>
<polygon fill="black" stroke="black" points="500.85,-91.97 511.05,-89.1 501.28,-84.99 500.85,-91.97"/>
<text text-anchor="middle" x="382.82" y="-88.59" font-family="Helvetica,Arial,sans-serif" font-size="14.00">REQUEST_SUCCESS</text>
</g>
<!-- ERROR -->
<g id="node4" class="node">
<title>ERROR</title>
<ellipse fill="none" stroke="black" cx="564.62" cy="-26.89" rx="42.57" ry="18"/>
<text text-anchor="middle" x="564.62" y="-21.09" font-family="Helvetica,Arial,sans-serif" font-size="14.00">ERROR</text>
</g>
<!-- PENDING&#45;&gt;ERROR -->
<g id="edge4" class="edge">
<title>PENDING&#45;&gt;ERROR</title>
<path fill="none" stroke="black" d="M253.21,-50.2C320.97,-45.11 442.37,-36 511.56,-30.8"/>
<polygon fill="black" stroke="black" points="511.5,-34.24 521.21,-30 510.97,-27.26 511.5,-34.24"/>
<text text-anchor="middle" x="382.82" y="-49.59" font-family="Helvetica,Arial,sans-serif" font-size="14.00">TIMEOUT [retries &gt;= max]</text>
</g>
<!-- PENDING&#45;&gt;ERROR -->
<g id="edge5" class="edge">
<title>PENDING&#45;&gt;ERROR</title>
<path fill="none" stroke="black" d="M224.56,-37.36C237.35,-28.19 254.58,-17.7 271.82,-12.89 355.58,10.45 458.03,-3.75 516.57,-15.68"/>
<polygon fill="black" stroke="black" points="515.82,-19.31 526.32,-17.95 517.26,-12.46 515.82,-19.31"/>
<text text-anchor="middle" x="382.82" y="-14.59" font-family="Helvetica,Arial,sans-serif" font-size="14.00">REQUEST_ERROR [retries &gt;= max]</text>
</g>
</g>
</svg>
