<?xml version="1.0" encoding="UTF-8" standalone="no"?>
<!DOCTYPE svg PUBLIC "-//W3C//DTD SVG 1.1//EN"
 "http://www.w3.org/Graphics/SVG/1.1/DTD/svg11.dtd">
<!-- Generated by graphviz version 8.1.0 (20230707.0739)
 -->
<!-- Title: blinky_state_machine Pages: 1 -->
<svg width="311pt" height="49pt"
 viewBox="0.00 0.00 310.72 49.11" xmlns="http://www.w3.org/2000/svg" xmlns:xlink="http://www.w3.org/1999/xlink">
<g id="graph0" class="graph" transform="scale(1 1) rotate(0) translate(4 45.11)">
<title>blinky_state_machine</title>
<polygon fill="white" stroke="none" points="-4,4 -4,-45.11 306.72,-45.11 306.72,4 -4,4"/>
<!-- null -->
<g id="node1" class="node">
<title>null</title>
<ellipse fill="black" stroke="black" cx="1.8" cy="-23.11" rx="1.8" ry="1.8"/>
</g>
<!-- ON -->
<g id="node2" class="node">
<title>ON</title>
<ellipse fill="none" stroke="black" cx="121.35" cy="-23.11" rx="27" ry="18"/>
<text text-anchor="middle" x="121.35" y="-17.31" font-family="Helvetica,Arial,sans-serif" font-size="14.00">ON</text>
</g>
<!-- null&#45;&gt;ON -->
<g id="edge1" class="edge">
<title>null&#45;&gt;ON</title>
<path fill="none" stroke="black" d="M3.55,-23.11C9.62,-23.11 51.26,-23.11 83.11,-23.11"/>
<polygon fill="black" stroke="black" points="82.89,-26.61 92.89,-23.11 82.89,-19.61 82.89,-26.61"/>
<text text-anchor="middle" x="48.98" y="-24.81" font-family="Helvetica,Arial,sans-serif" font-size="14.00">LED_ON</text>
</g>
<!-- OFF -->
<g id="node3" class="node">
<title>OFF</title>
<ellipse fill="none" stroke="black" cx="274.28" cy="-23.11" rx="28.43" ry="18"/>
<text text-anchor="middle" x="274.28" y="-17.31" font-family="Helvetica,Arial,sans-serif" font-size="14.00">OFF</text>
</g>
<!-- ON&#45;&gt;OFF -->
<g id="edge2" class="edge">
<title>ON&#45;&gt;OFF</title>
<path fill="none" stroke="black" d="M148.64,-23.11C172.36,-23.11 207.57,-23.11 234.52,-23.11"/>
<polygon fill="black" stroke="black" points="234.51,-26.61 244.51,-23.11 234.51,-19.61 234.51,-26.61"/>
<text text-anchor="middle" x="197.1" y="-24.81" font-family="Helvetica,Arial,sans-serif" font-size="14.00">LED_OFF</text>
</g>
<!-- OFF&#45;&gt;ON -->
<g id="edge3" class="edge">
<title>OFF&#45;&gt;ON</title>
<path fill="none" stroke="black" d="M251.66,-12.01C244.3,-8.8 235.9,-5.73 227.85,-4.11 201.05,1.27 193.12,1.42 166.35,-4.11 161.95,-5.02 157.45,-6.39 153.08,-7.99"/>
<polygon fill="black" stroke="black" points="152.19,-4.98 144.26,-12.02 154.84,-11.46 152.19,-4.98"/>
<text text-anchor="middle" x="197.1" y="-5.81" font-family="Helvetica,Arial,sans-serif" font-size="14.00">LED_ON</text>
</g>
</g>
</svg>
