<?xml version="1.0" encoding="UTF-8" standalone="no"?>
<!DOCTYPE svg PUBLIC "-//W3C//DTD SVG 1.1//EN"
 "http://www.w3.org/Graphics/SVG/1.1/DTD/svg11.dtd">
<!-- Generated by graphviz version 8.1.0 (20230707.0739)
 -->
<!-- Title: request_delayed_retry_state_machine Pages: 1 -->
<svg width="625pt" height="237pt"
 viewBox="0.00 0.00 625.43 236.77" xmlns="http://www.w3.org/2000/svg" xmlns:xlink="http://www.w3.org/1999/xlink">
<g id="graph0" class="graph" transform="scale(1 1) rotate(0) translate(4 232.77)">
<title>request_delayed_retry_state_machine</title>
<polygon fill="white" stroke="none" points="-4,4 -4,-232.77 621.43,-232.77 621.43,4 -4,4"/>
<!-- null -->
<g id="node1" class="node">
<title>null</title>
<ellipse fill="black" stroke="black" cx="1.8" cy="-121.77" rx="1.8" ry="1.8"/>
</g>
<!-- PENDING -->
<g id="node2" class="node">
<title>PENDING</title>
<ellipse fill="none" stroke="black" cx="202.96" cy="-121.77" rx="50.86" ry="18"/>
<text text-anchor="middle" x="202.96" y="-115.97" font-family="Helvetica,Arial,sans-serif" font-size="14.00">PENDING</text>
</g>
<!-- null&#45;&gt;PENDING -->
<g id="edge1" class="edge">
<title>null&#45;&gt;PENDING</title>
<path fill="none" stroke="black" d="M4.07,-121.77C14.49,-121.77 86.7,-121.77 140.91,-121.77"/>
<polygon fill="black" stroke="black" points="140.83,-125.27 150.83,-121.77 140.83,-118.27 140.83,-125.27"/>
<text text-anchor="middle" x="77.85" y="-123.47" font-family="Helvetica,Arial,sans-serif" font-size="14.00">MAKE_REQUEST</text>
</g>
<!-- RETRY -->
<g id="node3" class="node">
<title>RETRY</title>
<ellipse fill="none" stroke="black" cx="564.62" cy="-178.77" rx="40.13" ry="18"/>
<text text-anchor="middle" x="564.62" y="-172.97" font-family="Helvetica,Arial,sans-serif" font-size="14.00">RETRY</text>
</g>
<!-- PENDING&#45;&gt;RETRY -->
<g id="edge2" class="edge">
<title>PENDING&#45;&gt;RETRY</title>
<path fill="none" stroke="black" d="M214.29,-139.54C225.77,-157.32 246.12,-183.58 271.82,-194.77 354.36,-230.74 462.68,-209.16 521.38,-192.53"/>
<polygon fill="black" stroke="black" points="522.13,-195.66 530.75,-189.49 520.17,-188.94 522.13,-195.66"/>
<text text-anchor="middle" x="382.82" y="-215.47" font-family="Helvetica,Arial,sans-serif" font-size="14.00">TIMEOUT [retries &lt; max]</text>
</g>
<!-- PENDING&#45;&gt;RETRY -->
<g id="edge3" class="edge">
<title>PENDING&#45;&gt;RETRY</title>
<path fill="none" stroke="black" d="M228.73,-137.61C241.17,-144.75 256.77,-152.52 271.82,-156.77 294.39,-163.16 436.24,-171.78 513.54,-176.09"/>
<polygon fill="black" stroke="black" points="513.27,-179.63 523.45,-176.69 513.66,-172.65 513.27,-179.63"/>
<text text-anchor="middle" x="382.82" y="-176.47" font-family="Helvetica,Arial,sans-serif" font-size="14.00">REQUEST_ERROR [retries &lt; max]</text>
</g>
<!-- SUCCESS -->
<g id="node4" class="node">
<title>SUCCESS</title>
<ellipse fill="none" stroke="black" cx="564.62" cy="-102.77" rx="52.81" ry="18"/>
<text text-anchor="middle" x="564.62" y="-96.97" font-family="Helvetica,Arial,sans-serif" font-size="14.00">SUCCESS</text>
</g>
<!-- PENDING&#45;&gt;SUCCESS -->
<g id="edge7" class="edge">
<title>PENDING&#45;&gt;SUCCESS</title>
<path fill="none" stroke="black" d="M242.01,-109.85C251.64,-107.34 262.03,-105.07 271.82,-103.77 350.66,-93.36 442.53,-95.34 501.81,-98.43"/>
<polygon fill="black" stroke="black" points="501.31,-101.96 511.49,-99.02 501.7,-94.97 501.31,-101.96"/>
<text text-anchor="middle" x="382.82" y="-105.47" font-family="Helvetica,Arial,sans-serif" font-size="14.00">REQUEST_SUCCESS</text>
</g>
<!-- ERROR -->
<g id="node5" class="node">
<title>ERROR</title>
<ellipse fill="none" stroke="black" cx="564.62" cy="-37.77" rx="42.57" ry="18"/>
<text text-anchor="middle" x="564.62" y="-31.97" font-family="Helvetica,Arial,sans-serif" font-size="14.00">ERROR</text>
</g>
<!-- PENDING&#45;&gt;ERROR -->
<g id="edge5" class="edge">
<title>PENDING&#45;&gt;ERROR</title>
<path fill="none" stroke="black" d="M224,-104.94C236.85,-95.09 254.35,-83.33 271.82,-76.77 314.6,-60.71 439.99,-48.06 511.71,-41.89"/>
<polygon fill="black" stroke="black" points="511.65,-45.32 521.32,-40.99 511.06,-38.35 511.65,-45.32"/>
<text text-anchor="middle" x="382.82" y="-78.47" font-family="Helvetica,Arial,sans-serif" font-size="14.00">TIMEOUT [retries &gt;= max]</text>
</g>
<!-- PENDING&#45;&gt;ERROR -->
<g id="edge6" class="edge">
<title>PENDING&#45;&gt;ERROR</title>
<path fill="none" stroke="black" d="M210.4,-103.6C219.81,-80.2 239.74,-40.58 271.82,-23.77 351.92,18.19 461.99,-5.09 521.43,-23.09"/>
<polygon fill="black" stroke="black" points="519.98,-26.61 530.57,-26.26 522.07,-19.93 519.98,-26.61"/>
<text text-anchor="middle" x="382.82" y="-25.47" font-family="Helvetica,Arial,sans-serif" font-size="14.00">REQUEST_ERROR [retries &gt;= max]</text>
</g>
<!-- RETRY&#45;&gt;PENDING -->
<g id="edge4" class="edge">
<title>RETRY&#45;&gt;PENDING</title>
<path fill="none" stroke="black" d="M543.16,-163.21C529.86,-154.03 511.71,-143.17 493.82,-137.77 452.57,-125.33 337.13,-122.37 264.99,-121.78"/>
<polygon fill="black" stroke="black" points="265.27,-118.27 255.24,-121.7 265.22,-125.27 265.27,-118.27"/>
<text text-anchor="middle" x="382.82" y="-139.47" font-family="Helvetica,Arial,sans-serif" font-size="14.00">MAKE_REQUEST</text>
</g>
</g>
</svg>
