<?xml version="1.0" encoding="UTF-8" standalone="no"?>
<!DOCTYPE svg PUBLIC "-//W3C//DTD SVG 1.1//EN"
 "http://www.w3.org/Graphics/SVG/1.1/DTD/svg11.dtd">
<!-- Generated by graphviz version 8.1.0 (20230707.0739)
 -->
<!-- Title: request_delayed_retry_state_machine Pages: 1 -->
<svg width="654pt" height="238pt"
 viewBox="0.00 0.00 653.70 238.13" xmlns="http://www.w3.org/2000/svg" xmlns:xlink="http://www.w3.org/1999/xlink">
<g id="graph0" class="graph" transform="scale(1 1) rotate(0) translate(4 234.13)">
<title>request_delayed_retry_state_machine</title>
<polygon fill="white" stroke="none" points="-4,4 -4,-234.13 649.7,-234.13 649.7,4 -4,4"/>
<!-- null -->
<g id="node1" class="node">
<title>null</title>
<ellipse fill="black" stroke="black" cx="1.8" cy="-122.13" rx="1.8" ry="1.8"/>
</g>
<!-- PENDING -->
<g id="node2" class="node">
<title>PENDING</title>
<ellipse fill="none" stroke="black" cx="202.96" cy="-122.13" rx="50.86" ry="18"/>
<text text-anchor="middle" x="202.96" y="-116.33" font-family="Helvetica,Arial,sans-serif" font-size="14.00">PENDING</text>
</g>
<!-- null&#45;&gt;PENDING -->
<g id="edge1" class="edge">
<title>null&#45;&gt;PENDING</title>
<path fill="none" stroke="black" d="M4.07,-122.13C14.49,-122.13 86.7,-122.13 140.91,-122.13"/>
<polygon fill="black" stroke="black" points="140.83,-125.63 150.83,-122.13 140.83,-118.63 140.83,-125.63"/>
<text text-anchor="middle" x="77.85" y="-123.83" font-family="Helvetica,Arial,sans-serif" font-size="14.00">MAKE_REQUEST</text>
</g>
<!-- RETRY_WAIT -->
<g id="node3" class="node">
<title>RETRY_WAIT</title>
<ellipse fill="none" stroke="black" cx="578.76" cy="-179.13" rx="66.94" ry="18"/>
<text text-anchor="middle" x="578.76" y="-173.33" font-family="Helvetica,Arial,sans-serif" font-size="14.00">RETRY_WAIT</text>
</g>
<!-- PENDING&#45;&gt;RETRY_WAIT -->
<g id="edge2" class="edge">
<title>PENDING&#45;&gt;RETRY_WAIT</title>
<path fill="none" stroke="black" d="M214.29,-139.9C225.77,-157.68 246.12,-183.94 271.82,-195.13 354.09,-230.99 460.83,-212.62 524.03,-195.94"/>
<polygon fill="black" stroke="black" points="524.82,-199.08 533.55,-193.07 522.98,-192.33 524.82,-199.08"/>
<text text-anchor="middle" x="382.82" y="-216.83" font-family="Helvetica,Arial,sans-serif" font-size="14.00">TIMEOUT [retries &lt; max]</text>
</g>
<!-- PENDING&#45;&gt;RETRY_WAIT -->
<g id="edge3" class="edge">
<title>PENDING&#45;&gt;RETRY_WAIT</title>
<path fill="none" stroke="black" d="M228.73,-137.99C241.16,-145.13 256.76,-152.9 271.82,-157.13 293.34,-163.18 418.32,-170.77 501.73,-175.26"/>
<polygon fill="black" stroke="black" points="501.53,-178.81 511.7,-175.85 501.9,-171.82 501.53,-178.81"/>
<text text-anchor="middle" x="382.82" y="-175.83" font-family="Helvetica,Arial,sans-serif" font-size="14.00">REQUEST_ERROR [retries &lt; max]</text>
</g>
<!-- SUCCESS -->
<g id="node4" class="node">
<title>SUCCESS</title>
<ellipse fill="none" stroke="black" cx="578.76" cy="-103.13" rx="52.81" ry="18"/>
<text text-anchor="middle" x="578.76" y="-97.33" font-family="Helvetica,Arial,sans-serif" font-size="14.00">SUCCESS</text>
</g>
<!-- PENDING&#45;&gt;SUCCESS -->
<g id="edge7" class="edge">
<title>PENDING&#45;&gt;SUCCESS</title>
<path fill="none" stroke="black" d="M242.01,-110.21C251.64,-107.7 262.03,-105.43 271.82,-104.13 355.77,-93.05 453.81,-95.38 515.84,-98.72"/>
<polygon fill="black" stroke="black" points="515.43,-102.26 525.61,-99.33 515.82,-95.27 515.43,-102.26"/>
<text text-anchor="middle" x="382.82" y="-105.83" font-family="Helvetica,Arial,sans-serif" font-size="14.00">REQUEST_SUCCESS</text>
</g>
<!-- ERROR -->
<g id="node5" class="node">
<title>ERROR</title>
<ellipse fill="none" stroke="black" cx="578.76" cy="-38.13" rx="42.57" ry="18"/>
<text text-anchor="middle" x="578.76" y="-32.33" font-family="Helvetica,Arial,sans-serif" font-size="14.00">ERROR</text>
</g>
<!-- PENDING&#45;&gt;ERROR -->
<g id="edge5" class="edge">
<title>PENDING&#45;&gt;ERROR</title>
<path fill="none" stroke="black" d="M223.34,-105.32C236.21,-95.13 253.96,-82.85 271.82,-76.13 317.12,-59.1 451.11,-47.17 525.86,-41.63"/>
<polygon fill="black" stroke="black" points="525.73,-45.08 535.45,-40.86 525.22,-38.1 525.73,-45.08"/>
<text text-anchor="middle" x="382.82" y="-77.83" font-family="Helvetica,Arial,sans-serif" font-size="14.00">TIMEOUT [retries &gt;= max]</text>
</g>
<!-- PENDING&#45;&gt;ERROR -->
<g id="edge6" class="edge">
<title>PENDING&#45;&gt;ERROR</title>
<path fill="none" stroke="black" d="M210.46,-104.14C219.92,-80.98 239.92,-41.75 271.82,-25.13 356.5,18.97 472.96,-5.21 534.91,-23.57"/>
<polygon fill="black" stroke="black" points="533.52,-27.11 544.1,-26.68 535.56,-20.41 533.52,-27.11"/>
<text text-anchor="middle" x="382.82" y="-26.83" font-family="Helvetica,Arial,sans-serif" font-size="14.00">REQUEST_ERROR [retries &gt;= max]</text>
</g>
<!-- RETRY_WAIT&#45;&gt;PENDING -->
<g id="edge4" class="edge">
<title>RETRY_WAIT&#45;&gt;PENDING</title>
<path fill="none" stroke="black" d="M550.48,-162.35C534.56,-153.46 513.75,-143.32 493.82,-138.13 452.12,-127.28 336.83,-123.79 264.85,-122.66"/>
<polygon fill="black" stroke="black" points="265.17,-119.15 255.12,-122.51 265.07,-126.15 265.17,-119.15"/>
<text text-anchor="middle" x="382.82" y="-139.83" font-family="Helvetica,Arial,sans-serif" font-size="14.00">MAKE_REQUEST</text>
</g>
</g>
</svg>
